<svg width="20" height="24" viewBox="0 0 20 24" fill="none" xmlns="http://www.w3.org/2000/svg">
<path fill-rule="evenodd" clip-rule="evenodd" d="M9.51079 23.9761C9.60244 24.0073 9.69168 24.0085 9.78332 23.9761C10.9542 23.5801 19.2941 20.4217 19.2941 11.1036V2.76475C19.2944 2.65751 19.2585 2.55327 19.1923 2.46866C19.1261 2.38406 19.0333 2.32396 18.9287 2.29795L9.76403 0.0143275C9.68723 -0.00477582 9.60689 -0.00477582 9.53009 0.0143275L0.365384 2.29795C0.260831 2.32396 0.168042 2.38406 0.101817 2.46866C0.0355926 2.55327 -0.000251702 2.65751 1.33051e-06 2.76475V11.1024C1.33051e-06 20.3269 8.34229 23.5669 9.51079 23.9761ZM15.4522 7.896C15.5442 7.76772 15.6099 7.62267 15.6456 7.46912C15.6812 7.31557 15.6862 7.15653 15.6601 7.00109C15.634 6.84564 15.5774 6.69683 15.4935 6.56315C15.4096 6.42947 15.3001 6.31354 15.1712 6.22198C15.0423 6.13043 14.8965 6.06503 14.7422 6.02953C14.5879 5.99403 14.4281 5.98912 14.2719 6.01509C14.1157 6.04105 13.9662 6.09738 13.8318 6.18085C13.6975 6.26432 13.581 6.37331 13.489 6.50159L8.28682 13.7497L5.67609 11.1504C5.44866 10.9318 5.14405 10.8109 4.82787 10.8136C4.51169 10.8164 4.20924 10.9426 3.98566 11.165C3.76208 11.3875 3.63526 11.6885 3.63251 12.0032C3.62976 12.3178 3.75131 12.6209 3.97097 12.8472L7.58862 16.4473C7.71246 16.5703 7.86173 16.6651 8.02607 16.725C8.1904 16.7848 8.36586 16.8084 8.54027 16.794C8.71467 16.7796 8.88384 16.7276 9.03603 16.6416C9.18821 16.5557 9.31977 16.4377 9.42156 16.2961L15.4522 7.896Z" fill="#D9D9D9"/>
</svg>
