<svg width="24" height="15" viewBox="0 0 24 15" fill="none" xmlns="http://www.w3.org/2000/svg">
<path d="M0.935199 9.22134e-05C0.813015 -0.00163578 0.691705 0.0209376 0.57832 0.0665004C0.464935 0.112063 0.361736 0.179707 0.274721 0.2655C0.187706 0.351293 0.11861 0.453525 0.0714481 0.566254C0.0242865 0.678984 0 0.799962 0 0.922159C0 1.04436 0.0242865 1.16533 0.0714481 1.27806C0.11861 1.39079 0.187706 1.49302 0.274721 1.57882C0.361736 1.66461 0.464935 1.73226 0.57832 1.77782C0.691705 1.82338 0.813015 1.84595 0.935199 1.84423H23.0648C23.187 1.84595 23.3083 1.82338 23.4217 1.77782C23.5351 1.73226 23.6383 1.66461 23.7253 1.57882C23.8123 1.49302 23.8814 1.39079 23.9286 1.27806C23.9757 1.16533 24 1.04436 24 0.922159C24 0.799962 23.9757 0.678984 23.9286 0.566254C23.8814 0.453525 23.8123 0.351293 23.7253 0.2655C23.6383 0.179707 23.5351 0.112063 23.4217 0.0665004C23.3083 0.0209376 23.187 -0.00163578 23.0648 9.22134e-05H0.935199ZM0.935199 6.45456C0.813015 6.45283 0.691705 6.4754 0.57832 6.52097C0.464935 6.56653 0.361736 6.63417 0.274721 6.71997C0.187706 6.80576 0.11861 6.90799 0.0714481 7.02072C0.0242865 7.13345 0 7.25443 0 7.37663C0 7.49882 0.0242865 7.6198 0.0714481 7.73253C0.11861 7.84526 0.187706 7.94749 0.274721 8.03329C0.361736 8.11908 0.464935 8.18672 0.57832 8.23229C0.691705 8.27785 0.813015 8.30042 0.935199 8.29869H23.0648C23.187 8.30042 23.3083 8.27785 23.4217 8.23229C23.5351 8.18672 23.6383 8.11908 23.7253 8.03329C23.8123 7.94749 23.8814 7.84526 23.9286 7.73253C23.9757 7.6198 24 7.49882 24 7.37663C24 7.25443 23.9757 7.13345 23.9286 7.02072C23.8814 6.90799 23.8123 6.80576 23.7253 6.71997C23.6383 6.63417 23.5351 6.56653 23.4217 6.52097C23.3083 6.4754 23.187 6.45283 23.0648 6.45456H0.935199ZM0.935199 12.909C0.813015 12.9073 0.691705 12.9299 0.57832 12.9754C0.464935 13.021 0.361736 13.0886 0.274721 13.1744C0.187706 13.2602 0.11861 13.3625 0.0714481 13.4752C0.0242865 13.5879 0 13.7089 0 13.8311C0 13.9533 0.0242865 14.0743 0.0714481 14.187C0.11861 14.2997 0.187706 14.402 0.274721 14.4878C0.361736 14.5735 0.464935 14.6412 0.57832 14.6868C0.691705 14.7323 0.813015 14.7549 0.935199 14.7532H23.0648C23.187 14.7549 23.3083 14.7323 23.4217 14.6868C23.5351 14.6412 23.6383 14.5735 23.7253 14.4878C23.8123 14.402 23.8814 14.2997 23.9286 14.187C23.9757 14.0743 24 13.9533 24 13.8311C24 13.7089 23.9757 13.5879 23.9286 13.4752C23.8814 13.3625 23.8123 13.2602 23.7253 13.1744C23.6383 13.0886 23.5351 13.021 23.4217 12.9754C23.3083 12.9299 23.187 12.9073 23.0648 12.909H0.935199Z" fill="#181818"/>
</svg>
